#!OML:ASF X:\für Bonn\!DataBase\2005_08_12_Daniel\c3d\Daniel.ASF
:FULLY-SPECIFIED
:DEGREES
34
root 0.328588 14.8643 -1.37882 13.1513 -86.3512 -31.6544
lowerback 35.6756 -3.08118 6.60883
upperback 2.17115 -2.05029 -1.95635
thorax -16.0226 -1.55629 -4.74198
lowerneck 8.16732 0.930713 -0.363114
upperneck 1.18699 1.15179 0.485909
head -0.997876 0.539816 0.173828
rclavicle 1.06847e-014 1.19271e-015
rhumerus 55.7577 3.02296 -90.3851
rradius 8.80689
rwrist 49.9576
rhand -18.5136 7.39867
rfingers 7.12502
rthumb 7.77467 -22.4384
lclavicle 1.06847e-014 1.19271e-015
lhumerus 57.44 6.87157 101.497
lradius 10.1291
lwrist -75.634
lhand -15.2654 -0.776496
lfingers 7.12502
lthumb 10.9087 28.9201
rfemur -14.6781 -17.4641 9.88328
rtibia 72.9771
rfoot -24.449 15.7494
rtoes -12.0617
lfemur -20.073 5.36779 -7.61105
ltibia 72.6237
lfoot -33.3067 -7.33636
ltoes -4.42912
35
root 0.354802 14.7132 -1.36514 12.2612 -86.6279 -31.0312
lowerback 36.4319 -2.99445 6.41443
upperback 2.22747 -1.99148 -1.99443
thorax -16.2455 -1.52864 -4.6889
lowerneck 8.13272 0.930006 -0.411121
upperneck 1.01484 1.1513 0.522973
head -1.04744 0.540249 0.193145
rclavicle -5.31749e-015 1.35174e-014
rhumerus 56.1605 3.0302 -90.362
rradius 8.81021
rwrist 49.8625
rhand -18.4727 7.49675
rfingers 7.12502
rthumb 7.81413 -22.3388
lclavicle -5.31749e-015 1.35174e-014
lhumerus 57.7169 6.24611 100.726
lradius 10.1753
lwrist -74.6055
lhand -15.2602 -0.871856
lfingers 7.12502
lthumb 10.9138 28.8245
rfemur -15.9531 -18.2316 8.99914
rtibia 75.4981
rfoot -23.4378 17.1866
rtoes -11.2721
lfemur -20.9359 6.76006 -7.17899
ltibia 74.564
lfoot -33.3951 -8.72295
ltoes -4.08577
36
root 0.377732 14.5605 -1.35229 10.4054 -86.8837 -29.441
lowerback 37.2227 -2.91872 6.22268
upperback 2.21448 -1.95036 -2.06479
thorax -16.4489 -1.50881 -4.659
lowerneck 8.11245 0.936716 -0.515134
upperneck 0.843748 1.15656 0.632091
head -1.10026 0.54199 0.243979
rclavicle -7.77745e-015 2.26615e-014
rhumerus 56.5166 3.01108 -90.3564
rradius 8.866
rwrist 49.8571
rhand -18.4992 7.59909
rfingers 7.12502
rthumb 7.78854 -22.2375
lclavicle -7.77745e-015 2.26615e-014
lhumerus 58.015 5.62278 99.9465
lradius 10.2213
lwrist -73.6271
lhand -15.2551 -0.945002
lfingers 7.12502
lthumb 10.9187 28.7511
rfemur -17.1683 -18.9974 8.04292
rtibia 77.9436
rfoot -22.3596 18.6991
rtoes -10.242
lfemur -21.8078 8.10203 -6.76584
ltibia 76.5171
lfoot -33.3965 -10.1963
ltoes -3.53806
37
root 0.397894 14.402 -1.34035 8.75517 -87.0772 -28.0837
lowerback 37.9318 -2.85811 6.04941
upperback 2.28581 -1.92648 -2.09311
thorax -16.6312 -1.49617 -4.59384
lowerneck 8.11357 0.948371 -0.670172
upperneck 0.650632 1.16382 0.731276
head -1.16433 0.544888 0.300291
rclavicle -3.62782e-015 -7.95139e-016
rhumerus 56.8937 3.0374 -90.3295
rradius 8.92282
rwrist 49.9397
rhand -18.5099 7.61635
rfingers 7.12502
rthumb 7.77822 -22.2206
lclavicle -3.62782e-015 -7.95139e-016
lhumerus 58.3218 4.99025 99.0595
lradius 10.2838
lwrist -72.4441
lhand -15.2501 -1.00171
lfingers 7.12502
lthumb 10.9236 28.6941
rfemur -18.2768 -19.8109 7.07717
rtibia 80.3142
rfoot -21.3354 20.2388
rtoes -9.21657
lfemur -22.6874 9.44918 -6.25
ltibia 78.509
lfoot -33.3231 -11.7515
ltoes -2.84767
38
root 0.41458 14.2396 -1.33047 6.35034 -87.2288 -25.9464
lowerback 38.568 -2.79716 5.84968
upperback 2.35677 -1.91979 -2.11974
thorax -16.7833 -1.48787 -4.50665
lowerneck 8.12771 0.957563 -0.795616
upperneck 0.478213 1.16916 0.793496
head -1.22367 0.547385 0.340364
rclavicle -3.55328e-015 2.82274e-014
rhumerus 57.2753 3.07491 -90.3124
rradius 8.94595
rwrist 50.0212
rhand -18.5586 7.64288
rfingers 7.12502
rthumb 7.7312 -22.1958
lclavicle -3.55328e-015 2.82274e-014
lhumerus 58.6134 4.28552 97.9962
lradius 10.3649
lwrist -71.1032
lhand -15.29 -1.05248
lfingers 7.12502
lthumb 10.885 28.6454
rfemur -19.3391 -20.6384 6.06446
rtibia 82.6281
rfoot -20.3347 21.8001
rtoes -8.01163
lfemur -23.6374 10.8383 -5.69376
ltibia 80.536
lfoot -33.1423 -13.4627
ltoes -2.10913
39
root 0.430209 14.072 -1.32135 4.07317 -87.3577 -23.9419
lowerback 39.1995 -2.74912 5.68478
upperback 2.42452 -1.91978 -2.1574
thorax -16.9357 -1.48521 -4.44776
lowerneck 8.18327 0.974559 -0.911163
upperneck 0.274219 1.18657 0.896314
head -1.30099 0.555005 0.391003
rclavicle -6.95746e-015 6.36111e-015
rhumerus 57.6418 3.09726 -90.3195
rradius 8.97201
rwrist 50.1603
rhand -18.6398 7.66868
rfingers 7.12502
rthumb 7.65282 -22.1729
lclavicle -6.95746e-015 6.36111e-015
lhumerus 58.9631 3.71943 97.1759
lradius 10.3954
lwrist -70.0345
lhand -15.3421 -1.16044
lfingers 7.12502
lthumb 10.8348 28.5401
rfemur -20.3565 -21.4577 5.05753
rtibia 84.8806
rfoot -19.2838 23.3646
rtoes -6.86991
lfemur -24.6046 12.1711 -5.09163
ltibia 82.5966
lfoot -32.9217 -15.1767
ltoes -1.62195
40
root 0.444438 13.9023 -1.31156 1.70042 -87.4726 -21.8363
lowerback 39.8184 -2.70791 5.51507
upperback 2.47921 -1.92954 -2.17684
thorax -17.0954 -1.48574 -4.36177
lowerneck 8.28319 1.00294 -1.08523
upperneck 0.0521591 1.21323 1.00522
head -1.39296 0.566999 0.453218
rclavicle 1.63997e-015 3.97569e-016
rhumerus 58.0095 3.18134 -90.3297
rradius 8.96481
rwrist 50.3358
rhand -18.759 7.60754
rfingers 7.12502
rthumb 7.53781 -22.2381
lclavicle 1.63997e-015 3.97569e-016
lhumerus 59.3112 3.35434 96.6668
lradius 10.4635
lwrist -69.396
lhand -15.4353 -1.23335
lfingers 7.12502
lthumb 10.7449 28.4718
rfemur -21.3272 -22.2884 4.02885
rtibia 87.0609
rfoot -18.1607 24.8969
rtoes -5.63836
lfemur -25.6045 13.3973 -4.50323
ltibia 84.681
lfoot -32.6468 -16.7796
ltoes -1.12414
41
root 0.457543 13.7293 -1.3029 -0.482036 -87.5696 -19.9118
lowerback 40.4101 -2.67547 5.37409
upperback 2.53213 -1.94334 -2.20798
thorax -17.2455 -1.48998 -4.30306
lowerneck 8.36671 1.03366 -1.21514
upperneck -0.134728 1.24666 1.11296
head -1.47081 0.58217 0.507616
rclavicle 5.2181e-015 -6.36111e-015
rhumerus 58.3782 3.24838 -90.3643
rradius 8.96814
rwrist 50.538
rhand -18.822 7.55932
rfingers 7.12502
rthumb 7.47697 -22.2885
lclavicle 5.2181e-015 -6.36111e-015
lhumerus 59.669 2.95443 96.0666
lradius 10.4912
lwrist -68.6624
lhand -15.5955 -1.27405
lfingers 7.12502
lthumb 10.5904 28.4391
rfemur -22.2695 -23.124 3.00528
rtibia 89.1854
rfoot -17.0149 26.4167
rtoes -4.49302
lfemur -26.6374 14.5335 -3.89362
ltibia 86.7953
lfoot -32.3291 -18.358
ltoes -0.635436
42
root 0.468888 13.5584 -1.29376 -2.25656 -87.6561 -18.4076
lowerback 41.0077 -2.64253 5.25287
upperback 2.5776 -1.94451 -2.21595
thorax -17.4007 -1.48958 -4.23504
lowerneck 8.52333 1.05363 -1.35367
upperneck -0.371142 1.26312 1.17606
head -1.57751 0.589801 0.550166
rclavicle 4.64659e-015 -7.95139e-015
rhumerus 58.7806 3.29989 -90.3517
rradius 8.89525
rwrist 50.6808
rhand -18.9224 7.53455
rfingers 7.12502
rthumb 7.38008 -22.3167
lclavicle 4.64659e-015 -7.95139e-015
lhumerus 60.026 2.57508 95.4909
lradius 10.5077
lwrist -67.9882
lhand -15.7513 -1.31273
lfingers 7.12502
lthumb 10.44 28.4081
rfemur -23.125 -23.9432 1.99455
rtibia 91.2175
rfoot -15.9087 27.8277
rtoes -3.39292
lfemur -27.6611 15.6483 -3.23727
ltibia 88.9134
lfoot -31.934 -19.944
ltoes -0.176898
43
root 0.479512 13.3891 -1.28579 -3.53366 -87.7421 -17.3771
lowerback 41.5547 -2.61454 5.14308
upperback 2.63789 -1.95032 -2.21669
thorax -17.5165 -1.49077 -4.16346
lowerneck 8.65116 1.09303 -1.51117
upperneck -0.607994 1.30448 1.26319
head -1.68061 0.609571 0.602822
rclavicle 5.14355e-015 9.54166e-015
rhumerus 59.232 3.3852 -90.3556
rradius 8.79608
rwrist 50.8503
rhand -18.9842 7.48029
rfingers 7.12502
rthumb 7.32042 -22.3731
lclavicle 5.14355e-015 9.54166e-015
lhumerus 60.4363 2.3089 95.0837
lradius 10.4959
lwrist -67.5449
lhand -15.9517 -1.32828
lfingers 7.12502
lthumb 10.2468 28.4021
rfemur -23.9709 -24.728 1.02034
rtibia 93.1775
rfoot -14.6954 29.2447
rtoes -2.23931
lfemur -28.7295 16.7816 -2.52609
ltibia 91.0615
lfoot -31.4866 -21.4853
ltoes 0.273167
44
root 0.491061 13.2163 -1.27702 -4.2223 -87.8018 -16.9509
lowerback 42.147 -2.61616 5.10294
upperback 2.67945 -1.96394 -2.24071
thorax -17.6715 -1.50185 -4.15068
lowerneck 8.76671 1.12284 -1.61149
upperneck -0.799951 1.33802 1.34861
head -1.76665 0.625002 0.645624
rclavicle -7.15625e-015 -3.18055e-015
rhumerus 59.6835 3.43075 -90.3861
rradius 8.65443
rwrist 51.0903
rhand -19.0711 7.38816
rfingers 7.12502
rthumb 7.23653 -22.4681
lclavicle -7.15625e-015 -3.18055e-015
lhumerus 60.8409 2.06879 94.7818
lradius 10.4912
lwrist -67.2823
lhand -16.0813 -1.39973
lfingers 7.12502
lthumb 10.1217 28.3368
rfemur -24.7704 -25.473 0.049045
rtibia 95.0995
rfoot -13.4889 30.6388
rtoes -1.15982
lfemur -29.8261 17.9023 -1.76935
ltibia 93.2447
lfoot -30.9415 -22.9855
ltoes 0.595659
45
root 0.502263 13.0405 -1.26828 -4.24556 -87.8565 -17.1638
lowerback 42.7089 -2.61948 5.06183
upperback 2.72622 -1.97624 -2.23335
thorax -17.8038 -1.51067 -4.10287
lowerneck 8.84154 1.1594 -1.73562
upperneck -0.998457 1.37779 1.39783
head -1.84785 0.644986 0.680991
rclavicle 9.24349e-015 0
rhumerus 60.1975 3.51229 -90.3862
rradius 8.45767
rwrist 51.2923
rhand -19.1571 7.31576
rfingers 7.12502
rthumb 7.15346 -22.5433
lclavicle 9.24349e-015 0
lhumerus 61.2604 1.87867 94.4909
lradius 10.5041
lwrist -67.0736
lhand -16.1791 -1.39474
lfingers 7.12502
lthumb 10.0274 28.3464
rfemur -25.6066 -26.2027 -0.867425
rtibia 97.0244
rfoot -12.4014 31.9408
rtoes -0.222078
lfemur -30.9817 19.0289 -0.973377
ltibia 95.4589
lfoot -30.2468 -24.4444
ltoes 0.872684
46
root 0.514162 12.8584 -1.25985 -3.26307 -87.9005 -18.3792
lowerback 43.284 -2.64126 5.0693
upperback 2.76161 -1.98916 -2.23362
thorax -17.9529 -1.52383 -4.08886
lowerneck 8.94137 1.19118 -1.85581
upperneck -1.23198 1.41257 1.47528
head -1.94572 0.661778 0.724977
rclavicle 1.58034e-014 1.98785e-014
rhumerus 60.7618 3.57565 -90.4047
rradius 8.18719
rwrist 51.5
rhand -19.2644 7.26009
rfingers 7.12502
rthumb 7.04996 -22.6025
lclavicle 1.58034e-014 1.98785e-014
lhumerus 61.6496 1.77488 94.3823
lradius 10.5602
lwrist -67.1511
lhand -16.3094 -1.45454
lfingers 7.12502
lthumb 9.90169 28.2926
rfemur -26.457 -26.9769 -1.71753
rtibia 98.9833
rfoot -11.735 33.0447
rtoes 0.269511
lfemur -32.1763 20.1549 -0.116839
ltibia 97.7048
lfoot -29.4252 -25.9163
ltoes 1.14197
47
root 0.526773 12.6702 -1.24999 -1.65756 -87.949 -20.2001
lowerback 43.8505 -2.66217 5.08243
upperback 2.78788 -1.99174 -2.20439
thorax -18.1041 -1.53211 -4.04971
lowerneck 8.99308 1.23663 -2.00236
upperneck -1.41074 1.46135 1.51988
head -2.01737 0.686693 0.762569
rclavicle -7.95139e-016 1.23246e-014
rhumerus 61.3143 3.65224 -90.3762
rradius 7.97059
rwrist 51.7008
rhand -19.2733 7.23337
rfingers 7.12502
rthumb 7.04137 -22.6295
lclavicle -7.95139e-016 1.23246e-014
lhumerus 62.0638 1.72469 94.3618
lradius 10.5963
lwrist -67.2888
lhand -16.3364 -1.47878
lfingers 7.12502
lthumb 9.8756 28.2696
rfemur -27.3535 -27.8382 -2.54443
rtibia 101.006
rfoot -11.4791 34.0138
rtoes 0.295228
lfemur -33.4188 21.291 0.752623
ltibia 99.9709
lfoot -28.5317 -27.2818
ltoes 1.44414
48
root 0.538766 12.4738 -1.24023 0.503115 -87.9904 -22.5602
lowerback 44.4079 -2.69685 5.14054
upperback 2.79605 -1.99369 -2.20491
thorax -18.2747 -1.54463 -4.06889
lowerneck 9.05874 1.26287 -2.02999
upperneck -1.57364 1.49488 1.52164
head -2.08428 0.704197 0.766514
rclavicle 1.26725e-014 -2.22639e-014
rhumerus 61.8463 3.70023 -90.3981
rradius 7.78982
rwrist 51.94
rhand -19.2588 7.16437
rfingers 7.12502
rthumb 7.05534 -22.698
lclavicle 1.26725e-014 -2.22639e-014
lhumerus 62.4239 1.66954 94.3625
lradius 10.6548
lwrist -67.5586
lhand -16.3598 -1.55618
lfingers 7.12502
lthumb 9.85308 28.1933
rfemur -28.2791 -28.8247 -3.40213
rtibia 103.105
rfoot -11.5556 34.9477
rtoes 0.0507107
lfemur -34.6811 22.4234 1.64304
ltibia 102.242
lfoot -27.607 -28.6029
ltoes 1.76114
